Dinish-CondensedBold.ufo
<glyph name="ampersand" format="2">
  <advance width="526"/>
  <unicode hex="0026"/>
  <outline>
    <contour>
      <point x="414" y="161" type="line"/>
      <point x="487" y="275" type="line"/>
      <point x="402" y="334" type="line"/>
      <point x="355" y="258" type="line"/>
      <point x="293" y="362" type="line"/>
      <point x="364" y="440"/>
      <point x="395" y="501"/>
      <point x="395" y="561" type="curve" smooth="yes"/>
      <point x="395" y="655"/>
      <point x="333" y="717"/>
      <point x="238" y="717" type="curve" smooth="yes"/>
      <point x="143" y="717"/>
      <point x="79" y="655"/>
      <point x="79" y="561" type="curve" smooth="yes"/>
      <point x="79" y="494.583"/>
      <point x="107.029" y="436.553"/>
      <point x="153" y="377" type="curve"/>
      <point x="72" y="289"/>
      <point x="39" y="225"/>
      <point x="39" y="155" type="curve" smooth="yes"/>
      <point x="39" y="55"/>
      <point x="102" y="-10"/>
      <point x="199" y="-10" type="curve" smooth="yes"/>
      <point x="263" y="-10"/>
      <point x="311" y="12"/>
      <point x="346" y="58" type="curve"/>
      <point x="352.143" y="49.3982" type="line" smooth="yes"/>
      <point x="375.291" y="17.3945"/>
      <point x="392.397" y="0"/>
      <point x="437" y="0" type="curve" smooth="yes"/>
      <point x="486" y="0" type="line"/>
      <point x="486" y="103" type="line"/>
      <point x="474" y="103" type="line" smooth="yes"/>
      <point x="455.194" y="103"/>
      <point x="441.133" y="114.272"/>
      <point x="432" y="130" type="curve" smooth="yes"/>
    </contour>
    <contour>
      <point x="233" y="461" type="curve"/>
      <point x="217.456" y="489.345"/>
      <point x="193" y="533.644"/>
      <point x="193" y="567" type="curve" smooth="yes"/>
      <point x="193" y="596.322"/>
      <point x="204.97" y="624"/>
      <point x="238" y="624" type="curve" smooth="yes"/>
      <point x="266" y="624"/>
      <point x="282" y="603"/>
      <point x="282" y="567" type="curve" smooth="yes"/>
      <point x="282" y="530"/>
      <point x="269" y="502"/>
    </contour>
    <contour>
      <point x="290" y="152" type="line"/>
      <point x="263" y="115"/>
      <point x="240" y="99"/>
      <point x="213" y="99" type="curve" smooth="yes"/>
      <point x="173.26" y="99"/>
      <point x="158" y="131.661"/>
      <point x="158" y="167" type="curve" smooth="yes"/>
      <point x="158" y="205"/>
      <point x="174" y="239"/>
      <point x="211" y="281" type="curve"/>
    </contour>
  </outline>
</glyph>
<glyph name="parenright" format="2">
  <advance width="278"/>
  <unicode hex="0029"/>
  <outline>
    <contour>
      <point x="140" y="-86" type="line"/>
      <point x="205" y="38"/>
      <point x="240" y="184"/>
      <point x="240" y="336" type="curve" smooth="yes"/>
      <point x="240" y="488"/>
      <point x="205" y="634"/>
      <point x="140" y="758" type="curve"/>
      <point x="39" y="758" type="line"/>
      <point x="95" y="621"/>
      <point x="123" y="478"/>
      <point x="123" y="336" type="curve" smooth="yes"/>
      <point x="123" y="191"/>
      <point x="95" y="48"/>
      <point x="39" y="-86" type="curve"/>
    </contour>
  </outline>
</glyph>
<glyph name="plus" format="2">
  <advance width="429"/>
  <unicode hex="002B"/>
  <outline>
    <contour>
      <point x="33" y="225" type="line"/>
      <point x="158" y="225" type="line"/>
      <point x="158" y="100" type="line"/>
      <point x="271" y="100" type="line"/>
      <point x="271" y="225" type="line"/>
      <point x="396" y="225" type="line"/>
      <point x="396" y="339" type="line"/>
      <point x="271" y="339" type="line"/>
      <point x="271" y="464" type="line"/>
      <point x="158" y="464" type="line"/>
      <point x="158" y="339" type="line"/>
      <point x="33" y="339" type="line"/>
    </contour>
  </outline>
</glyph>
<glyph name="zero" format="2">
  <advance width="418"/>
  <unicode hex="0030"/>
  <outline>
    <contour>
      <point x="209" y="-10" type="curve" smooth="yes"/>
      <point x="323" y="-10"/>
      <point x="380" y="56"/>
      <point x="380" y="190" type="curve" smooth="yes"/>
      <point x="380" y="518" type="line" smooth="yes"/>
      <point x="380" y="652"/>
      <point x="323" y="718"/>
      <point x="209" y="718" type="curve" smooth="yes"/>
      <point x="95" y="718"/>
      <point x="39" y="652"/>
      <point x="39" y="518" type="curve" smooth="yes"/>
      <point x="39" y="190" type="line" smooth="yes"/>
      <point x="39" y="56"/>
      <point x="95" y="-10"/>
    </contour>
    <contour>
      <point x="209" y="103" type="curve" smooth="yes"/>
      <point x="169.024" y="103.387"/>
      <point x="165" y="159.031"/>
      <point x="165" y="191" type="curve" smooth="yes"/>
      <point x="165" y="517" type="line" smooth="yes"/>
      <point x="165" y="550.96"/>
      <point x="167.288" y="604.387"/>
      <point x="209" y="604" type="curve" smooth="yes"/>
      <point x="250.712" y="603.613"/>
      <point x="255" y="551.823"/>
      <point x="255" y="517" type="curve" smooth="yes"/>
      <point x="255" y="191" type="line" smooth="yes"/>
      <point x="255" y="157.147"/>
      <point x="248.976" y="102.613"/>
    </contour>
  </outline>
</glyph>
<glyph name="five" format="2">
  <advance width="415"/>
  <unicode hex="0035"/>
  <outline>
    <contour>
      <point x="39" y="195" type="line"/>
      <point x="39" y="162" type="line" smooth="yes"/>
      <point x="39" y="51.0325"/>
      <point x="98.968" y="-10"/>
      <point x="208" y="-10" type="curve" smooth="yes"/>
      <point x="319.029" y="-10"/>
      <point x="377" y="50.0296"/>
      <point x="377" y="165" type="curve" smooth="yes"/>
      <point x="377" y="296" type="line" smooth="yes"/>
      <point x="377" y="406"/>
      <point x="332" y="461"/>
      <point x="242" y="461" type="curve" smooth="yes"/>
      <point x="208.833" y="461"/>
      <point x="181.9" y="451.91"/>
      <point x="162" y="434" type="curve"/>
      <point x="162" y="592" type="line"/>
      <point x="377" y="592" type="line"/>
      <point x="377" y="707" type="line"/>
      <point x="47" y="707" type="line"/>
      <point x="47" y="315" type="line"/>
      <point x="162" y="315" type="line"/>
      <point x="171.521" y="339.755"/>
      <point x="185.577" y="351"/>
      <point x="207" y="351" type="curve" smooth="yes"/>
      <point x="236.167" y="351"/>
      <point x="251" y="330.773"/>
      <point x="251" y="291" type="curve" smooth="yes"/>
      <point x="251" y="167" type="line" smooth="yes"/>
      <point x="251" y="122.341"/>
      <point x="237.231" y="102"/>
      <point x="207" y="102" type="curve" smooth="yes"/>
      <point x="176.769" y="102"/>
      <point x="163" y="122.341"/>
      <point x="163" y="167" type="curve" smooth="yes"/>
      <point x="163" y="195" type="line"/>
    </contour>
  </outline>
</glyph>
<glyph name="question" format="2">
  <advance width="385"/>
  <unicode hex="003F"/>
  <outline>
    <contour>
      <point x="132" y="203" type="line"/>
      <point x="245" y="203" type="line"/>
      <point x="245" y="248" type="line" smooth="yes"/>
      <point x="245" y="294"/>
      <point x="251" y="316"/>
      <point x="272" y="346" type="curve" smooth="yes"/>
      <point x="312" y="404" type="line" smooth="yes"/>
      <point x="346" y="453"/>
      <point x="358" y="491"/>
      <point x="358" y="547" type="curve" smooth="yes"/>
      <point x="358" y="653"/>
      <point x="295" y="716"/>
      <point x="189" y="716" type="curve" smooth="yes"/>
      <point x="75" y="716"/>
      <point x="20" y="649"/>
      <point x="20" y="509" type="curve"/>
      <point x="139" y="509" type="line"/>
      <point x="139" y="548.83"/>
      <point x="150.868" y="608"/>
      <point x="188" y="608" type="curve" smooth="yes"/>
      <point x="226.512" y="608"/>
      <point x="237" y="578.973"/>
      <point x="237" y="544" type="curve" smooth="yes"/>
      <point x="237" y="505"/>
      <point x="230" y="479"/>
      <point x="209" y="446" type="curve" smooth="yes"/>
      <point x="173" y="389" type="line" smooth="yes"/>
      <point x="140" y="337"/>
      <point x="132" y="308"/>
      <point x="132" y="247" type="curve" smooth="yes"/>
    </contour>
    <contour>
      <point x="132" y="0" type="line"/>
      <point x="245" y="0" type="line"/>
      <point x="245" y="130" type="line"/>
      <point x="132" y="130" type="line"/>
    </contour>
  </outline>
</glyph>
<glyph name="H" format="2">
  <advance width="471"/>
  <unicode hex="0048"/>
  <anchor x="235" y="770" name="top"/>
  <anchor x="235" y="-86" name="bottom"/>
  <outline>
    <contour>
      <point x="148.64" y="303" type="line"/>
      <point x="322.36" y="303" type="line"/>
      <point x="322.36" y="416" type="line"/>
      <point x="148.64" y="416" type="line"/>
    </contour>
    <contour>
      <point x="302" y="0" type="line"/>
      <point x="428" y="0" type="line"/>
      <point x="428" y="707" type="line"/>
      <point x="302" y="707" type="line"/>
    </contour>
    <contour>
      <point x="43" y="0" type="line"/>
      <point x="169" y="0" type="line"/>
      <point x="169" y="707" type="line"/>
      <point x="43" y="707" type="line"/>
    </contour>
  </outline>
  <guideline angle="90" name="h1" x="235" y="0"/>
</glyph>
<glyph name="R" format="2">
  <advance width="471"/>
  <unicode hex="0052"/>
  <anchor x="229" y="770" name="top"/>
  <anchor x="229" y="-86" name="bottom"/>
  <outline>
    <contour>
      <point x="43" y="0" type="line"/>
      <point x="169" y="0" type="line"/>
      <point x="169" y="284" type="line"/>
      <point x="229" y="284" type="line"/>
      <point x="318" y="0" type="line"/>
      <point x="450" y="0" type="line"/>
      <point x="344" y="307" type="line"/>
      <point x="401" y="338"/>
      <point x="427" y="398"/>
      <point x="427" y="496" type="curve" smooth="yes"/>
      <point x="427" y="646"/>
      <point x="372" y="707"/>
      <point x="236" y="707" type="curve" smooth="yes"/>
      <point x="43" y="707" type="line"/>
    </contour>
    <contour>
      <point x="169" y="396" type="line"/>
      <point x="169" y="594" type="line"/>
      <point x="234" y="594" type="line" smooth="yes"/>
      <point x="282" y="594"/>
      <point x="301" y="566"/>
      <point x="301" y="496" type="curve" smooth="yes"/>
      <point x="301" y="425"/>
      <point x="281" y="396"/>
      <point x="234" y="396" type="curve" smooth="yes"/>
    </contour>
  </outline>
  <guideline angle="90" name="h1" x="229" y="0"/>
</glyph>
<glyph name="X" format="2">
  <advance width="424"/>
  <unicode hex="0058"/>
  <anchor x="214" y="770" name="top"/>
  <anchor x="236" y="-86" name="bottom"/>
  <outline>
    <contour>
      <point x="6" y="0" type="line"/>
      <point x="130" y="0" type="line"/>
      <point x="213" y="247" type="line"/>
      <point x="295" y="0" type="line"/>
      <point x="419" y="0" type="line"/>
      <point x="274" y="367" type="line"/>
      <point x="409" y="707" type="line"/>
      <point x="285" y="707" type="line"/>
      <point x="213" y="485" type="line"/>
      <point x="140" y="707" type="line"/>
      <point x="16" y="707" type="line"/>
      <point x="151" y="367" type="line"/>
    </contour>
  </outline>
  <guideline angle="90" name="h1" x="214" y="0"/>
</glyph>
<glyph name="f" format="2">
  <advance width="293"/>
  <unicode hex="0066"/>
  <anchor x="155" y="770" name="top"/>
  <anchor x="236" y="-86" name="bottom"/>
  <outline>
    <contour>
      <point x="82" y="0" type="line"/>
      <point x="200" y="0" type="line"/>
      <point x="200" y="458" type="line"/>
      <point x="272" y="458" type="line"/>
      <point x="272" y="541" type="line"/>
      <point x="200" y="541" type="line"/>
      <point x="200" y="563" type="line" smooth="yes"/>
      <point x="200" y="605.686"/>
      <point x="213.779" y="623"/>
      <point x="257" y="623" type="curve" smooth="yes"/>
      <point x="272" y="623" type="line"/>
      <point x="272" y="707" type="line"/>
      <point x="221" y="707" type="line" smooth="yes"/>
      <point x="127.995" y="707"/>
      <point x="82" y="661"/>
      <point x="82" y="571" type="curve" smooth="yes"/>
      <point x="82" y="541" type="line"/>
      <point x="28" y="541" type="line"/>
      <point x="28" y="458" type="line"/>
      <point x="82" y="458" type="line"/>
    </contour>
  </outline>
  <guideline angle="90" name="h1" x="155" y="0"/>
</glyph>
<glyph name="w" format="2">
  <advance width="623"/>
  <unicode hex="0077"/>
  <anchor x="311" y="604" name="top"/>
  <anchor x="311" y="-86" name="bottom"/>
  <anchor x="311" y="578" name="t.ring"/>
  <outline>
    <contour>
      <point x="134" y="0" type="line"/>
      <point x="249" y="0" type="line"/>
      <point x="311" y="331" type="line"/>
      <point x="373" y="0" type="line"/>
      <point x="488" y="0" type="line"/>
      <point x="612" y="541" type="line"/>
      <point x="480" y="541" type="line"/>
      <point x="426" y="189" type="line"/>
      <point x="360" y="541" type="line"/>
      <point x="262" y="541" type="line"/>
      <point x="197" y="189" type="line"/>
      <point x="142" y="541" type="line"/>
      <point x="11" y="541" type="line"/>
    </contour>
  </outline>
  <guideline angle="90" name="h1" x="311" y="0"/>
</glyph>
<glyph name="z" format="2">
  <advance width="393"/>
  <unicode hex="007A"/>
  <anchor x="186" y="604" name="top"/>
  <anchor x="186" y="-86" name="bottom"/>
  <outline>
    <contour>
      <point x="39" y="0" type="line"/>
      <point x="354" y="0" type="line"/>
      <point x="354" y="100" type="line"/>
      <point x="161" y="100" type="line"/>
      <point x="354" y="440" type="line"/>
      <point x="354" y="541" type="line"/>
      <point x="39" y="541" type="line"/>
      <point x="39" y="440" type="line"/>
      <point x="236" y="440" type="line"/>
      <point x="39" y="100" type="line"/>
    </contour>
  </outline>
  <guideline angle="90" name="h1" x="186" y="0"/>
</glyph>
<glyph name="cent" format="2">
  <advance width="453"/>
  <unicode hex="00A2"/>
  <outline>
    <contour>
      <point x="202" y="-102" type="line"/>
      <point x="262" y="-102" type="line"/>
      <point x="262" y="-3" type="line"/>
      <point x="337.194" y="13.0415"/>
      <point x="378" y="74.25"/>
      <point x="378" y="171" type="curve" smooth="yes"/>
      <point x="378" y="188" type="line"/>
      <point x="263" y="188" type="line"/>
      <point x="263" y="171" type="line" smooth="yes"/>
      <point x="263" y="122.396"/>
      <point x="245.288" y="98"/>
      <point x="210" y="98" type="curve" smooth="yes"/>
      <point x="175.864" y="98"/>
      <point x="158" y="128.231"/>
      <point x="158" y="186" type="curve" smooth="yes"/>
      <point x="158" y="354" type="line" smooth="yes"/>
      <point x="158" y="412.057"/>
      <point x="176.034" y="442"/>
      <point x="211" y="442" type="curve" smooth="yes"/>
      <point x="245.711" y="442"/>
      <point x="263" y="418.394"/>
      <point x="263" y="371" type="curve" smooth="yes"/>
      <point x="263" y="352" type="line"/>
      <point x="378" y="352" type="line"/>
      <point x="378" y="373" type="line" smooth="yes"/>
      <point x="378" y="469.754"/>
      <point x="339.196" y="526.957"/>
      <point x="262" y="544" type="curve"/>
      <point x="262" y="650" type="line"/>
      <point x="202" y="650" type="line"/>
      <point x="202" y="549" type="line"/>
      <point x="93.8505" y="549"/>
      <point x="39" y="483.045"/>
      <point x="39" y="353" type="curve" smooth="yes"/>
      <point x="39" y="187" type="line" smooth="yes"/>
      <point x="39" y="57.2896"/>
      <point x="93.5754" y="-8"/>
      <point x="202" y="-8" type="curve"/>
    </contour>
  </outline>
</glyph>
<glyph name="brokenbar" format="2">
  <advance width="270"/>
  <unicode hex="00A6"/>
  <outline>
    <contour>
      <point x="78" y="397" type="line"/>
      <point x="193" y="397" type="line"/>
      <point x="193" y="758" type="line"/>
      <point x="78" y="758" type="line"/>
    </contour>
    <contour>
      <point x="78" y="-86" type="line"/>
      <point x="193" y="-86" type="line"/>
      <point x="193" y="274" type="line"/>
      <point x="78" y="274" type="line"/>
    </contour>
  </outline>
</glyph>
<glyph name="divide" format="2">
  <advance width="429"/>
  <unicode hex="00F7"/>
  <outline>
    <contour>
      <point x="214" y="385" type="curve" smooth="yes"/>
      <point x="250" y="385"/>
      <point x="280" y="415"/>
      <point x="280" y="451" type="curve" smooth="yes"/>
      <point x="280" y="487"/>
      <point x="251" y="515"/>
      <point x="214" y="515" type="curve" smooth="yes"/>
      <point x="178" y="515"/>
      <point x="150" y="487"/>
      <point x="150" y="451" type="curve" smooth="yes"/>
      <point x="150" y="415"/>
      <point x="179" y="385"/>
    </contour>
    <contour>
      <point x="33" y="225" type="line"/>
      <point x="396" y="225" type="line"/>
      <point x="396" y="339" type="line"/>
      <point x="33" y="339" type="line"/>
    </contour>
    <contour>
      <point x="214" y="53" type="curve" smooth="yes"/>
      <point x="251" y="53"/>
      <point x="280" y="81"/>
      <point x="280" y="118" type="curve" smooth="yes"/>
      <point x="280" y="155"/>
      <point x="251" y="183"/>
      <point x="214" y="183" type="curve" smooth="yes"/>
      <point x="178" y="183"/>
      <point x="150" y="154"/>
      <point x="150" y="118" type="curve" smooth="yes"/>
      <point x="150" y="82"/>
      <point x="178" y="53"/>
    </contour>
  </outline>
</glyph>
<glyph name="oslash" format="2">
  <advance width="420"/>
  <unicode hex="00F8"/>
  <anchor x="211" y="604" name="top"/>
  <outline>
    <component base="o"/>
    <contour>
      <point x="39" y="-30" type="line"/>
      <point x="94" y="-30" type="line"/>
      <point x="382" y="568" type="line"/>
      <point x="327" y="568" type="line"/>
    </contour>
  </outline>
  <guideline angle="90" name="h1" x="211" y="0"/>
</glyph>
<glyph name="dcroat" format="2">
  <advance width="419"/>
  <unicode hex="0111"/>
  <outline>
    <component base="d"/>
    <contour>
      <point x="186" y="587" type="line"/>
      <point x="429" y="587" type="line"/>
      <point x="429" y="654" type="line"/>
      <point x="186" y="654" type="line"/>
    </contour>
  </outline>
</glyph>
<glyph name="Hbar" format="2">
  <advance width="471"/>
  <unicode hex="0126"/>
  <outline>
    <contour>
      <point x="9" y="518" type="line"/>
      <point x="461" y="518" type="line"/>
      <point x="461" y="631" type="line"/>
      <point x="9" y="631" type="line"/>
    </contour>
    <contour>
      <point x="148.64" y="303" type="line"/>
      <point x="322.36" y="303" type="line"/>
      <point x="322.36" y="416" type="line"/>
      <point x="148.64" y="416" type="line"/>
    </contour>
    <contour>
      <point x="302" y="0" type="line"/>
      <point x="428" y="0" type="line"/>
      <point x="428" y="707" type="line"/>
      <point x="302" y="707" type="line"/>
    </contour>
    <contour>
      <point x="43" y="0" type="line"/>
      <point x="169" y="0" type="line"/>
      <point x="169" y="707" type="line"/>
      <point x="43" y="707" type="line"/>
    </contour>
  </outline>
</glyph>
<glyph name="ij" format="2">
  <advance width="421"/>
  <unicode hex="0133"/>
  <outline>
    <contour>
      <point x="41" y="607" type="line"/>
      <point x="160" y="607" type="line"/>
      <point x="160" y="707" type="line"/>
      <point x="41" y="707" type="line"/>
    </contour>
    <contour>
      <point x="264" y="607" type="line"/>
      <point x="380" y="607" type="line"/>
      <point x="380" y="707" type="line"/>
      <point x="264" y="707" type="line"/>
    </contour>
    <contour>
      <point x="50" y="-18" type="line"/>
      <point x="52" y="-116"/>
      <point x="110" y="-172"/>
      <point x="212" y="-172" type="curve" smooth="yes"/>
      <point x="317" y="-172"/>
      <point x="380" y="-105"/>
      <point x="380" y="6" type="curve" smooth="yes"/>
      <point x="380" y="541" type="line"/>
      <point x="264" y="541" type="line"/>
      <point x="264" y="237" type="line" smooth="yes"/>
      <point x="264" y="178"/>
      <point x="247.014" y="148"/>
      <point x="212" y="148" type="curve" smooth="yes"/>
      <point x="176" y="148"/>
      <point x="160" y="175"/>
      <point x="160" y="237" type="curve" smooth="yes"/>
      <point x="160" y="541" type="line"/>
      <point x="41" y="541" type="line"/>
      <point x="41" y="217" type="line" smooth="yes"/>
      <point x="41" y="106"/>
      <point x="89" y="42"/>
      <point x="173" y="42" type="curve" smooth="yes"/>
      <point x="209" y="42"/>
      <point x="240" y="57"/>
      <point x="266" y="88" type="curve"/>
      <point x="266" y="-5" type="line" smooth="yes"/>
      <point x="266" y="-47"/>
      <point x="247" y="-70"/>
      <point x="213" y="-70" type="curve" smooth="yes"/>
      <point x="179" y="-70"/>
      <point x="161" y="-52"/>
      <point x="161" y="-18" type="curve"/>
    </contour>
  </outline>
</glyph>
<glyph name="lcaron" format="2">
  <advance width="325"/>
  <unicode hex="013E"/>
  <outline>
    <component base="l"/>
    <contour>
      <point x="230" y="517" type="line"/>
      <point x="325" y="600" type="line"/>
      <point x="325" y="707" type="line"/>
      <point x="230" y="707" type="line"/>
    </contour>
  </outline>
</glyph>
<glyph name="apostrophemod" format="2">
  <unicode hex="02BC"/>
  <anchor x="57" y="707" name="_dot"/>
  <outline>
    <contour>
      <point x="-58" y="407" type="line"/>
      <point x="57" y="500" type="line"/>
      <point x="57" y="707" type="line"/>
      <point x="-58" y="707" type="line"/>
    </contour>
  </outline>
</glyph>
<glyph name="uni0300" format="2">
  <unicode hex="0300"/>
  <anchor x="0" y="604" name="_top"/>
  <outline>
    <contour>
      <point x="-38" y="604" type="line"/>
      <point x="64" y="604" type="line"/>
      <point x="-38" y="743" type="line"/>
      <point x="-164" y="743" type="line"/>
    </contour>
  </outline>
  <guideline angle="90" name="h1" x="0" y="0"/>
</glyph>
<glyph name="uni0307" format="2">
  <unicode hex="0307"/>
  <anchor x="0" y="604" name="_top"/>
  <outline>
    <contour>
      <point x="-62" y="615" type="line"/>
      <point x="62" y="615" type="line"/>
      <point x="62" y="715" type="line"/>
      <point x="-62" y="715" type="line"/>
    </contour>
  </outline>
  <guideline angle="90" name="h1" x="0" y="0"/>
</glyph>
<glyph name="uni030A" format="2">
  <unicode hex="030A"/>
  <anchor x="0" y="587" name="_t.ring"/>
  <outline>
    <contour>
      <point x="-96" y="683" type="curve" smooth="yes"/>
      <point x="-96" y="628.747"/>
      <point x="-54.2533" y="587"/>
      <point x="0" y="587" type="curve" smooth="yes"/>
      <point x="55" y="587"/>
      <point x="96" y="628"/>
      <point x="96" y="683" type="curve" smooth="yes"/>
      <point x="96" y="739.743"/>
      <point x="56.1577" y="780"/>
      <point x="0" y="780" type="curve" smooth="yes"/>
      <point x="-55.2113" y="780"/>
      <point x="-96" y="738.786"/>
    </contour>
    <contour>
      <point x="0" y="637" type="curve" smooth="yes"/>
      <point x="-24" y="637"/>
      <point x="-46" y="659"/>
      <point x="-46" y="683" type="curve" smooth="yes"/>
      <point x="-46" y="710.293"/>
      <point x="-26.7128" y="730"/>
      <point x="0" y="730" type="curve" smooth="yes"/>
      <point x="25.9255" y="730"/>
      <point x="45" y="710.078"/>
      <point x="45" y="683" type="curve" smooth="yes"/>
      <point x="45" y="657.722"/>
      <point x="24.7283" y="637"/>
    </contour>
  </outline>
</glyph>
<glyph name="uni030C" format="2">
  <unicode hex="030C"/>
  <anchor x="0" y="604" name="_top"/>
  <outline>
    <contour>
      <point x="-43.5" y="595" type="line"/>
      <point x="41.5" y="595" type="line"/>
      <point x="146.5" y="746" type="line"/>
      <point x="57.5" y="746" type="line"/>
      <point x="0.5" y="666" type="line"/>
      <point x="-57.5" y="746" type="line"/>
      <point x="-146.5" y="746" type="line"/>
    </contour>
  </outline>
  <guideline angle="90" name="h1" x="0" y="0"/>
</glyph>
<glyph name="Ljecyr" format="2">
  <advance width="745"/>
  <unicode hex="0409"/>
  <outline>
    <component base="Elcyr"/>
    <contour>
      <point x="427.82" y="0" type="line"/>
      <point x="513" y="0" type="line" smooth="yes"/>
      <point x="648.357" y="0"/>
      <point x="707" y="67.4098"/>
      <point x="707" y="223" type="curve" smooth="yes"/>
      <point x="707" y="377.015"/>
      <point x="646.987" y="446"/>
      <point x="513" y="446" type="curve" smooth="yes"/>
      <point x="427.82" y="446" type="line"/>
      <point x="427.82" y="332" type="line"/>
      <point x="509" y="332" type="line" smooth="yes"/>
      <point x="559.101" y="332"/>
      <point x="581" y="298.847"/>
      <point x="581" y="223" type="curve" smooth="yes"/>
      <point x="581" y="146.701"/>
      <point x="558.805" y="112.792"/>
      <point x="509" y="113" type="curve" smooth="yes"/>
      <point x="427.82" y="113.34" type="line"/>
    </contour>
  </outline>
</glyph>
<glyph name="Gecyr" format="2">
  <advance width="379"/>
  <unicode hex="0413"/>
  <anchor x="215" y="770" name="top"/>
  <outline>
    <contour>
      <point x="149.32" y="593" type="line"/>
      <point x="358" y="593" type="line"/>
      <point x="358" y="707" type="line"/>
      <point x="149.32" y="707" type="line"/>
    </contour>
    <contour>
      <point x="43" y="0" type="line"/>
      <point x="169" y="0" type="line"/>
      <point x="169" y="707.042" type="line"/>
      <point x="43" y="707" type="line"/>
    </contour>
  </outline>
  <guideline angle="90" name="h1" x="215" y="0"/>
</glyph>
<glyph name="Decyr" format="2">
  <advance width="606"/>
  <unicode hex="0414"/>
  <outline>
    <contour>
      <point x="226.35" y="0" type="line"/>
      <point x="470" y="0" type="line"/>
      <point x="470" y="-170" type="line"/>
      <point x="596" y="-170" type="line"/>
      <point x="596" y="114.2" type="line"/>
      <point x="226.35" y="114" type="line"/>
    </contour>
    <contour>
      <point x="129.893" y="0" type="line"/>
      <point x="215.35" y="124.202"/>
      <point x="248.105" y="185.098"/>
      <point x="268.416" y="395.808" type="curve" smooth="yes"/>
      <point x="298.416" y="707.041" type="line"/>
      <point x="172.416" y="707" type="line"/>
      <point x="148.416" y="449.585" type="line" smooth="yes"/>
      <point x="126.861" y="218.398"/>
      <point x="108.886" y="158.925"/>
      <point x="42.444" y="114.148" type="curve"/>
    </contour>
    <contour>
      <point x="402.416" y="0" type="line"/>
      <point x="528.416" y="0" type="line"/>
      <point x="528.416" y="707.042" type="line"/>
      <point x="402.416" y="707" type="line"/>
    </contour>
    <contour>
      <point x="275.32" y="593" type="line"/>
      <point x="496" y="593" type="line"/>
      <point x="496" y="707" type="line"/>
      <point x="275.32" y="707" type="line"/>
    </contour>
    <contour>
      <point x="216.32" y="-0.1003" type="line"/>
      <point x="416.372" y="-0.1003" type="line"/>
      <point x="416.372" y="113.9" type="line"/>
      <point x="216.32" y="113.9" type="line"/>
    </contour>
    <contour>
      <point x="10" y="-170" type="line"/>
      <point x="136" y="-170" type="line"/>
      <point x="136" y="0" type="line"/>
      <point x="386.03" y="0" type="line"/>
      <point x="386.03" y="114" type="line"/>
      <point x="10" y="114.16" type="line"/>
    </contour>
  </outline>
</glyph>
<glyph name="Kacyr" format="2">
  <advance width="471"/>
  <unicode hex="041A"/>
  <anchor x="236" y="770" name="top"/>
  <outline>
    <contour>
      <point x="147.64" y="302.664" type="line"/>
      <point x="291.465" y="302.664" type="line"/>
      <point x="291.465" y="415.58" type="line"/>
      <point x="147.64" y="415.58" type="line"/>
    </contour>
    <contour>
      <point x="43" y="0" type="line"/>
      <point x="168" y="0" type="line"/>
      <point x="168" y="707" type="line"/>
      <point x="43" y="707" type="line"/>
    </contour>
    <contour>
      <point x="333" y="0" type="line"/>
      <point x="467" y="0" type="line"/>
      <point x="291.19" y="430.219" type="line"/>
      <point x="205.015" y="315.964" type="line"/>
    </contour>
    <contour>
      <point x="187.083" y="315.964" type="line"/>
      <point x="272.747" y="316.102" type="line"/>
      <point x="454.624" y="707" type="line"/>
      <point x="328.624" y="707" type="line"/>
      <point x="187.083" y="398.155" type="line"/>
    </contour>
  </outline>
  <guideline angle="90" name="h1" x="236" y="0"/>
</glyph>
<glyph name="Ucyr" format="2">
  <advance width="424"/>
  <unicode hex="0423"/>
  <anchor x="218" y="770" name="top"/>
  <outline>
    <contour>
      <point x="61.0444" y="0" type="line"/>
      <point x="79.666" y="0" type="line" smooth="yes"/>
      <point x="164.998" y="0"/>
      <point x="225.029" y="65.2413"/>
      <point x="266.77" y="203.343" type="curve" smooth="yes"/>
      <point x="419" y="707" type="line"/>
      <point x="280" y="707" type="line"/>
      <point x="199.066" y="314.191" type="line"/>
      <point x="187.49" y="312.63" type="line"/>
      <point x="150.754" y="206.191" type="line" smooth="yes"/>
      <point x="132.369" y="152.923"/>
      <point x="105.194" y="125"/>
      <point x="71.7372" y="125" type="curve" smooth="yes"/>
      <point x="61.2027" y="125" type="line"/>
    </contour>
    <contour>
      <point x="180.446" y="176.961" type="line"/>
      <point x="251.023" y="355.366" type="line"/>
      <point x="144" y="707" type="line"/>
      <point x="6" y="707" type="line"/>
    </contour>
  </outline>
  <guideline angle="90" name="h1" x="218" y="0"/>
</glyph>
<glyph name="Softcyr" format="2">
  <advance width="465"/>
  <unicode hex="042C"/>
  <anchor x="233" y="770" name="top"/>
  <outline>
    <contour>
      <point x="147.82" y="0" type="line"/>
      <point x="233" y="0" type="line" smooth="yes"/>
      <point x="368.357" y="0"/>
      <point x="427" y="67.4098"/>
      <point x="427" y="223" type="curve" smooth="yes"/>
      <point x="427" y="377.015"/>
      <point x="366.987" y="446"/>
      <point x="233" y="446" type="curve" smooth="yes"/>
      <point x="147.82" y="446" type="line"/>
      <point x="147.82" y="332" type="line"/>
      <point x="229" y="332" type="line" smooth="yes"/>
      <point x="279.101" y="332"/>
      <point x="301" y="298.847"/>
      <point x="301" y="223" type="curve" smooth="yes"/>
      <point x="301" y="146.701"/>
      <point x="278.805" y="112.792"/>
      <point x="229" y="113" type="curve" smooth="yes"/>
      <point x="147.82" y="113.34" type="line"/>
    </contour>
    <contour>
      <point x="43" y="0" type="line"/>
      <point x="168" y="-0.0592" type="line"/>
      <point x="168" y="707" type="line"/>
      <point x="43" y="707" type="line"/>
    </contour>
  </outline>
  <guideline angle="90" name="h1" x="233" y="0"/>
  <guideline angle="90" name="h1" x="233" y="0"/>
</glyph>
<glyph name="zhecyr" format="2">
  <advance width="655"/>
  <unicode hex="0436"/>
  <outline>
    <component base="kacyr" xOffset="226"/>
    <contour>
      <point x="276" y="308" type="line"/>
      <point x="139" y="541" type="line"/>
      <point x="15" y="541" type="line"/>
      <point x="167" y="308" type="line"/>
    </contour>
    <contour>
      <point x="141" y="0" type="line"/>
      <point x="279" y="343" type="line"/>
      <point x="160" y="343" type="line"/>
      <point x="10" y="0" type="line"/>
    </contour>
    <contour>
      <point x="288" y="230" type="line"/>
      <point x="288" y="350" type="line"/>
      <point x="156" y="350" type="line"/>
      <point x="156" y="230" type="line"/>
    </contour>
  </outline>
</glyph>
<glyph name="Zdotbelow" format="2">
  <advance width="367"/>
  <unicode hex="1E92"/>
  <outline>
    <contour>
      <point x="22" y="0" type="line"/>
      <point x="348" y="0" type="line"/>
      <point x="348" y="114" type="line"/>
      <point x="146" y="114" type="line"/>
      <point x="344" y="593" type="line"/>
      <point x="344" y="707" type="line"/>
      <point x="32" y="707" type="line"/>
      <point x="32" y="593" type="line"/>
      <point x="220" y="593" type="line"/>
      <point x="22" y="114" type="line"/>
    </contour>
    <contour>
      <point x="125" y="-186" type="line"/>
      <point x="249" y="-186" type="line"/>
      <point x="249" y="-86" type="line"/>
      <point x="125" y="-86" type="line"/>
    </contour>
  </outline>
</glyph>
<glyph name="quoteleft" format="2">
  <advance width="175"/>
  <unicode hex="2018"/>
  <outline>
    <contour>
      <point x="30" y="444" type="line"/>
      <point x="145" y="444" type="line"/>
      <point x="145" y="744" type="line"/>
      <point x="30" y="651" type="line"/>
    </contour>
  </outline>
</glyph>
<glyph name="pertenthousandsign" format="2">
  <advance width="1352"/>
  <unicode hex="2031"/>
  <outline>
    <contour>
      <point x="215" y="0" type="line"/>
      <point x="299" y="0" type="line"/>
      <point x="565" y="715" type="line"/>
      <point x="481" y="715" type="line"/>
    </contour>
    <contour>
      <point x="145" y="272" type="curve" smooth="yes"/>
      <point x="221" y="272"/>
      <point x="259" y="310"/>
      <point x="259" y="387" type="curve" smooth="yes"/>
      <point x="259" y="598" type="line" smooth="yes"/>
      <point x="259" y="675"/>
      <point x="221" y="713"/>
      <point x="145" y="713" type="curve" smooth="yes"/>
      <point x="70" y="713"/>
      <point x="32" y="675"/>
      <point x="32" y="598" type="curve" smooth="yes"/>
      <point x="32" y="387" type="line" smooth="yes"/>
      <point x="32" y="310"/>
      <point x="70" y="272"/>
    </contour>
    <contour>
      <point x="145" y="348" type="curve" smooth="yes"/>
      <point x="120.763" y="347.911"/>
      <point x="116" y="369.074"/>
      <point x="116" y="399" type="curve" smooth="yes"/>
      <point x="116" y="586" type="line" smooth="yes"/>
      <point x="116" y="613.839"/>
      <point x="118.074" y="637"/>
      <point x="145" y="637" type="curve" smooth="yes"/>
      <point x="171.926" y="637"/>
      <point x="176" y="613.839"/>
      <point x="176" y="586" type="curve" smooth="yes"/>
      <point x="176" y="399" type="line" smooth="yes"/>
      <point x="176" y="367.069"/>
      <point x="169.237" y="348.089"/>
    </contour>
    <contour>
      <point x="634" y="-8" type="curve" smooth="yes"/>
      <point x="710" y="-8"/>
      <point x="748" y="30"/>
      <point x="748" y="107" type="curve" smooth="yes"/>
      <point x="748" y="318" type="line" smooth="yes"/>
      <point x="748" y="395"/>
      <point x="710" y="433"/>
      <point x="634" y="433" type="curve" smooth="yes"/>
      <point x="559" y="433"/>
      <point x="521" y="395"/>
      <point x="521" y="318" type="curve" smooth="yes"/>
      <point x="521" y="107" type="line" smooth="yes"/>
      <point x="521" y="30"/>
      <point x="559" y="-8"/>
    </contour>
    <contour>
      <point x="634" y="68" type="curve" smooth="yes"/>
      <point x="609.763" y="67.9112"/>
      <point x="605" y="89.0737"/>
      <point x="605" y="119" type="curve" smooth="yes"/>
      <point x="605" y="306" type="line" smooth="yes"/>
      <point x="605" y="333.839"/>
      <point x="607.074" y="357"/>
      <point x="634" y="357" type="curve" smooth="yes"/>
      <point x="660.926" y="357"/>
      <point x="665" y="333.839"/>
      <point x="665" y="306" type="curve" smooth="yes"/>
      <point x="665" y="119" type="line" smooth="yes"/>
      <point x="665" y="87.069"/>
      <point x="658.237" y="68.0888"/>
    </contour>
    <contour>
      <point x="925" y="-8" type="curve" smooth="yes"/>
      <point x="1001" y="-8"/>
      <point x="1039" y="30"/>
      <point x="1039" y="107" type="curve" smooth="yes"/>
      <point x="1039" y="318" type="line" smooth="yes"/>
      <point x="1039" y="395"/>
      <point x="1001" y="433"/>
      <point x="925" y="433" type="curve" smooth="yes"/>
      <point x="850" y="433"/>
      <point x="812" y="395"/>
      <point x="812" y="318" type="curve" smooth="yes"/>
      <point x="812" y="107" type="line" smooth="yes"/>
      <point x="812" y="30"/>
      <point x="850" y="-8"/>
    </contour>
    <contour>
      <point x="925" y="68" type="curve" smooth="yes"/>
      <point x="900.763" y="67.9112"/>
      <point x="896" y="89.0737"/>
      <point x="896" y="119" type="curve" smooth="yes"/>
      <point x="896" y="306" type="line" smooth="yes"/>
      <point x="896" y="333.839"/>
      <point x="898.074" y="357"/>
      <point x="925" y="357" type="curve" smooth="yes"/>
      <point x="951.926" y="357"/>
      <point x="956" y="333.839"/>
      <point x="956" y="306" type="curve" smooth="yes"/>
      <point x="956" y="119" type="line" smooth="yes"/>
      <point x="956" y="87.069"/>
      <point x="949.237" y="68.0888"/>
    </contour>
    <contour>
      <point x="1205.69" y="-6" type="curve" smooth="yes"/>
      <point x="1281.69" y="-6"/>
      <point x="1319.69" y="32"/>
      <point x="1319.69" y="109" type="curve" smooth="yes"/>
      <point x="1319.69" y="320" type="line" smooth="yes"/>
      <point x="1319.69" y="397"/>
      <point x="1281.69" y="435"/>
      <point x="1205.69" y="435" type="curve" smooth="yes"/>
      <point x="1130.69" y="435"/>
      <point x="1092.69" y="397"/>
      <point x="1092.69" y="320" type="curve" smooth="yes"/>
      <point x="1092.69" y="109" type="line" smooth="yes"/>
      <point x="1092.69" y="32"/>
      <point x="1130.69" y="-6"/>
    </contour>
    <contour>
      <point x="1205.69" y="70" type="curve" smooth="yes"/>
      <point x="1181.45" y="69.9112"/>
      <point x="1176.69" y="91.0737"/>
      <point x="1176.69" y="121" type="curve" smooth="yes"/>
      <point x="1176.69" y="308" type="line" smooth="yes"/>
      <point x="1176.69" y="335.839"/>
      <point x="1178.76" y="359"/>
      <point x="1205.69" y="359" type="curve" smooth="yes"/>
      <point x="1232.62" y="359"/>
      <point x="1236.69" y="335.839"/>
      <point x="1236.69" y="308" type="curve" smooth="yes"/>
      <point x="1236.69" y="121" type="line" smooth="yes"/>
      <point x="1236.69" y="89.069"/>
      <point x="1229.93" y="70.0888"/>
    </contour>
  </outline>
</glyph>
<glyph name="second" format="2">
  <advance width="372"/>
  <unicode hex="2033"/>
  <outline>
    <contour>
      <point x="30" y="604" type="line"/>
      <point x="131" y="604" type="line"/>
      <point x="177" y="743" type="line"/>
      <point x="51" y="743" type="line"/>
    </contour>
    <contour>
      <point x="200" y="604" type="line"/>
      <point x="301" y="604" type="line"/>
      <point x="347" y="743" type="line"/>
      <point x="221" y="743" type="line"/>
    </contour>
  </outline>
</glyph>
<glyph name="Euro" format="2">
  <advance width="464"/>
  <unicode hex="20AC"/>
  <outline>
    <contour>
      <point x="20" y="247" type="line"/>
      <point x="77" y="247" type="line"/>
      <point x="77" y="179" type="line" smooth="yes"/>
      <point x="77" y="53"/>
      <point x="135" y="-9"/>
      <point x="252" y="-9" type="curve" smooth="yes"/>
      <point x="363" y="-9"/>
      <point x="421" y="52"/>
      <point x="426" y="175" type="curve"/>
      <point x="308" y="175" type="line"/>
      <point x="307" y="127"/>
      <point x="288" y="101"/>
      <point x="254" y="101" type="curve" smooth="yes"/>
      <point x="209.113" y="101"/>
      <point x="203" y="141.456"/>
      <point x="203" y="178" type="curve" smooth="yes"/>
      <point x="203" y="247" type="line"/>
      <point x="323" y="247" type="line"/>
      <point x="338" y="330" type="line"/>
      <point x="203" y="330" type="line"/>
      <point x="203" y="382" type="line"/>
      <point x="346" y="382" type="line"/>
      <point x="360" y="465" type="line"/>
      <point x="203" y="465" type="line"/>
      <point x="203" y="532" type="line" smooth="yes"/>
      <point x="203" y="584"/>
      <point x="219" y="606"/>
      <point x="256" y="606" type="curve" smooth="yes"/>
      <point x="290" y="606"/>
      <point x="307" y="582"/>
      <point x="308" y="532" type="curve"/>
      <point x="426" y="532" type="line"/>
      <point x="424" y="656"/>
      <point x="367" y="717"/>
      <point x="253" y="717" type="curve" smooth="yes"/>
      <point x="138" y="717"/>
      <point x="77" y="652"/>
      <point x="77" y="529" type="curve" smooth="yes"/>
      <point x="77" y="465" type="line"/>
      <point x="20" y="465" type="line"/>
      <point x="20" y="382" type="line"/>
      <point x="77" y="382" type="line"/>
      <point x="77" y="330" type="line"/>
      <point x="20" y="330" type="line"/>
    </contour>
  </outline>
</glyph>
<glyph name="estimated" format="2">
  <advance width="885"/>
  <unicode hex="212E"/>
  <outline>
    <contour>
      <point x="700.298" y="129.661" type="line"/>
      <point x="638.12" y="57.9171"/>
      <point x="545.332" y="12.0013"/>
      <point x="442.022" y="12.0013" type="curve" smooth="yes"/>
      <point x="351.147" y="12.0013"/>
      <point x="268.559" y="47.0536"/>
      <point x="207.66" y="104.789" type="curve" smooth="yes"/>
      <point x="194.897" y="116.889"/>
      <point x="186.615" y="134.443"/>
      <point x="186.615" y="153.575" type="curve" smooth="yes"/>
      <point x="186.615" y="329.586" type="line" smooth="yes"/>
      <point x="186.615" y="335.325"/>
      <point x="191.398" y="340.108"/>
      <point x="197.137" y="340.108" type="curve" smooth="yes"/>
      <point x="845.698" y="340.108" type="line"/>
      <point x="845.698" y="351.587" type="line" smooth="yes"/>
      <point x="845.698" y="553.425"/>
      <point x="664.905" y="717"/>
      <point x="442.022" y="717" type="curve" smooth="yes"/>
      <point x="219.139" y="717"/>
      <point x="39.3019" y="553.425"/>
      <point x="39.3019" y="351.587" type="curve" smooth="yes"/>
      <point x="39.3019" y="151.662"/>
      <point x="219.139" y="-10"/>
      <point x="442.022" y="-10" type="curve" smooth="yes"/>
      <point x="572.116" y="-10"/>
      <point x="685.949" y="44.525"/>
      <point x="760.562" y="129.661" type="curve"/>
    </contour>
    <contour>
      <point x="197.137" y="362.109" type="line" smooth="yes"/>
      <point x="191.398" y="362.109"/>
      <point x="186.615" y="366.892"/>
      <point x="186.615" y="372.632" type="curve" smooth="yes"/>
      <point x="186.615" y="552.468" type="line" smooth="yes"/>
      <point x="186.615" y="571.6"/>
      <point x="194.98" y="589.068"/>
      <point x="207.66" y="601.254" type="curve" smooth="yes"/>
      <point x="268.639" y="659.858"/>
      <point x="351.147" y="694.999"/>
      <point x="442.022" y="694.999" type="curve" smooth="yes"/>
      <point x="532.897" y="694.999"/>
      <point x="616.361" y="659.858"/>
      <point x="677.34" y="601.254" type="curve" smooth="yes"/>
      <point x="690.02" y="589.068"/>
      <point x="698.385" y="571.6"/>
      <point x="698.385" y="552.468" type="curve" smooth="yes"/>
      <point x="698.385" y="372.632" type="line" smooth="yes"/>
      <point x="698.385" y="366.892"/>
      <point x="693.602" y="362.109"/>
      <point x="687.862" y="362.109" type="curve" smooth="yes"/>
    </contour>
  </outline>
</glyph>
<glyph name="nacute.loclPLK" format="2">
  <advance width="419"/>
  <outline>
    <component base="n"/>
    <contour>
      <point x="167" y="604" type="line"/>
      <point x="268" y="604" type="line"/>
      <point x="314" y="743" type="line"/>
      <point x="188" y="743" type="line"/>
    </contour>
  </outline>
</glyph>
<glyph name="nine.osf" format="2">
  <advance width="409"/>
  <outline>
    <contour>
      <point x="84" y="-162" type="line"/>
      <point x="214" y="-162" type="line"/>
      <point x="340" y="118" type="line" smooth="yes"/>
      <point x="366.033" y="175.852"/>
      <point x="374" y="212.405"/>
      <point x="374" y="274" type="curve" smooth="yes"/>
      <point x="374" y="377" type="line" smooth="yes"/>
      <point x="374" y="490.314"/>
      <point x="315.694" y="550"/>
      <point x="205" y="550" type="curve" smooth="yes"/>
      <point x="95.8609" y="550"/>
      <point x="34" y="488.863"/>
      <point x="34" y="381" type="curve" smooth="yes"/>
      <point x="34" y="260" type="line" smooth="yes"/>
      <point x="34" y="163.271"/>
      <point x="83.7724" y="104"/>
      <point x="165" y="104" type="curve" smooth="yes"/>
      <point x="183.429" y="104"/>
      <point x="195.205" y="106.114"/>
      <point x="204" y="111" type="curve"/>
    </contour>
    <contour>
      <point x="205" y="215" type="curve" smooth="yes"/>
      <point x="175" y="215"/>
      <point x="160" y="233"/>
      <point x="160" y="269" type="curve" smooth="yes"/>
      <point x="160" y="381" type="line" smooth="yes"/>
      <point x="160" y="417.833"/>
      <point x="174.864" y="436"/>
      <point x="205" y="436" type="curve" smooth="yes"/>
      <point x="233.833" y="436"/>
      <point x="248" y="418.209"/>
      <point x="248" y="382" type="curve" smooth="yes"/>
      <point x="248" y="264" type="line" smooth="yes"/>
      <point x="248" y="233.116"/>
      <point x="232.102" y="215"/>
    </contour>
  </outline>
</glyph>
<glyph name="oacute.loclPLK" format="2">
  <advance width="420"/>
  <outline>
    <contour>
      <point x="211" y="-8" type="curve" smooth="yes"/>
      <point x="328" y="-8"/>
      <point x="382" y="54"/>
      <point x="382" y="187" type="curve" smooth="yes"/>
      <point x="382" y="353" type="line" smooth="yes"/>
      <point x="382" y="487"/>
      <point x="328" y="549"/>
      <point x="211" y="549" type="curve" smooth="yes"/>
      <point x="94" y="549"/>
      <point x="39" y="486"/>
      <point x="39" y="353" type="curve" smooth="yes"/>
      <point x="39" y="187" type="line" smooth="yes"/>
      <point x="39" y="56"/>
      <point x="95" y="-8"/>
    </contour>
    <contour>
      <point x="210" y="98" type="curve" smooth="yes"/>
      <point x="176" y="98"/>
      <point x="158" y="128"/>
      <point x="158" y="186" type="curve" smooth="yes"/>
      <point x="158" y="354" type="line" smooth="yes"/>
      <point x="158" y="412"/>
      <point x="176" y="442"/>
      <point x="210" y="442" type="curve" smooth="yes"/>
      <point x="245" y="442"/>
      <point x="263" y="412"/>
      <point x="263" y="354" type="curve" smooth="yes"/>
      <point x="263" y="186" type="line" smooth="yes"/>
      <point x="263" y="128"/>
      <point x="245" y="98"/>
    </contour>
    <contour>
      <point x="167" y="604" type="line"/>
      <point x="268" y="604" type="line"/>
      <point x="314" y="743" type="line"/>
      <point x="188" y="743" type="line"/>
    </contour>
  </outline>
</glyph>
<glyph name="one.tlf" format="2">
  <advance width="418"/>
  <outline>
    <contour>
      <point x="207" y="0" type="line"/>
      <point x="335" y="0" type="line"/>
      <point x="335" y="707" type="line"/>
      <point x="207" y="707" type="line"/>
      <point x="54" y="638" type="line"/>
      <point x="54" y="492" type="line"/>
      <point x="207" y="560" type="line"/>
    </contour>
  </outline>
</glyph>
<glyph name="sacute.loclPLK" format="2">
  <advance width="401"/>
  <outline>
    <component base="s"/>
    <contour>
      <point x="157" y="604" type="line"/>
      <point x="258" y="604" type="line"/>
      <point x="304" y="743" type="line"/>
      <point x="178" y="743" type="line"/>
    </contour>
  </outline>
</glyph>
<glyph name="three.dnom" format="2">
  <advance width="284"/>
  <outline>
    <contour>
      <point x="29" y="122" type="line"/>
      <point x="29" y="90" type="line" smooth="yes"/>
      <point x="29" y="29"/>
      <point x="69" y="-6"/>
      <point x="140" y="-6" type="curve" smooth="yes"/>
      <point x="212" y="-6"/>
      <point x="253" y="32"/>
      <point x="253" y="100" type="curve" smooth="yes"/>
      <point x="253" y="147" type="line" smooth="yes"/>
      <point x="253" y="190"/>
      <point x="242" y="208"/>
      <point x="206" y="223" type="curve"/>
      <point x="241" y="241"/>
      <point x="253" y="260"/>
      <point x="253" y="299" type="curve" smooth="yes"/>
      <point x="253" y="334" type="line" smooth="yes"/>
      <point x="253" y="397"/>
      <point x="212" y="433"/>
      <point x="140" y="433" type="curve" smooth="yes"/>
      <point x="71" y="433"/>
      <point x="29" y="396"/>
      <point x="29" y="334" type="curve" smooth="yes"/>
      <point x="29" y="303" type="line"/>
      <point x="111" y="303" type="line"/>
      <point x="111" y="329" type="line" smooth="yes"/>
      <point x="111" y="348.724"/>
      <point x="118.98" y="357"/>
      <point x="139" y="357" type="curve" smooth="yes"/>
      <point x="161.927" y="357"/>
      <point x="169" y="347.007"/>
      <point x="169" y="325" type="curve" smooth="yes"/>
      <point x="169" y="292" type="line" smooth="yes"/>
      <point x="169" y="268.627"/>
      <point x="160.689" y="257"/>
      <point x="136" y="257" type="curve" smooth="yes"/>
      <point x="118" y="257" type="line"/>
      <point x="118" y="182" type="line"/>
      <point x="134" y="182" type="line" smooth="yes"/>
      <point x="164.79" y="182"/>
      <point x="169" y="170.587"/>
      <point x="169" y="142" type="curve" smooth="yes"/>
      <point x="169" y="102" type="line" smooth="yes"/>
      <point x="169" y="78.6373"/>
      <point x="163.38" y="70"/>
      <point x="139" y="70" type="curve" smooth="yes"/>
      <point x="120" y="70"/>
      <point x="111" y="79"/>
      <point x="111" y="98" type="curve" smooth="yes"/>
      <point x="111" y="122" type="line"/>
    </contour>
  </outline>
</glyph>
<glyph name="three.tlf" format="2">
  <advance width="418"/>
  <outline>
    <contour>
      <point x="42" y="205" type="line"/>
      <point x="42" y="153" type="line" smooth="yes"/>
      <point x="42" y="49.7695"/>
      <point x="103.236" y="-10"/>
      <point x="209" y="-10" type="curve" smooth="yes"/>
      <point x="315.685" y="-10"/>
      <point x="378" y="52.6834"/>
      <point x="378" y="160" type="curve" smooth="yes"/>
      <point x="378" y="232" type="line" smooth="yes"/>
      <point x="378" y="313.134"/>
      <point x="359.913" y="348.035"/>
      <point x="307" y="369" type="curve"/>
      <point x="357.965" y="390.985"/>
      <point x="378" y="427.951"/>
      <point x="378" y="500" type="curve" smooth="yes"/>
      <point x="378" y="548" type="line" smooth="yes"/>
      <point x="378" y="655.318"/>
      <point x="316.683" y="717"/>
      <point x="210" y="717" type="curve" smooth="yes"/>
      <point x="105.13" y="717"/>
      <point x="42" y="656.125"/>
      <point x="42" y="555" type="curve" smooth="yes"/>
      <point x="42" y="505" type="line"/>
      <point x="164" y="505" type="line"/>
      <point x="164" y="548" type="line" smooth="yes"/>
      <point x="164" y="584.625"/>
      <point x="178.7" y="603"/>
      <point x="208" y="603" type="curve" smooth="yes"/>
      <point x="238.258" y="603"/>
      <point x="252" y="583.636"/>
      <point x="252" y="541" type="curve" smooth="yes"/>
      <point x="252" y="482" type="line" smooth="yes"/>
      <point x="252" y="435.252"/>
      <point x="239.946" y="420"/>
      <point x="203" y="420" type="curve" smooth="yes"/>
      <point x="174" y="420" type="line"/>
      <point x="174" y="307" type="line"/>
      <point x="201" y="307" type="line" smooth="yes"/>
      <point x="240" y="307"/>
      <point x="252" y="291"/>
      <point x="252" y="239" type="curve" smooth="yes"/>
      <point x="252" y="166" type="line" smooth="yes"/>
      <point x="252" y="120.591"/>
      <point x="239.714" y="103"/>
      <point x="208" y="103" type="curve" smooth="yes"/>
      <point x="179.349" y="103"/>
      <point x="164" y="122.534"/>
      <point x="164" y="159" type="curve" smooth="yes"/>
      <point x="164" y="205" type="line"/>
    </contour>
  </outline>
</glyph>
<glyph name="two.dnom" format="2">
  <advance width="289"/>
  <outline>
    <contour>
      <point x="32" y="0" type="line"/>
      <point x="257" y="0" type="line"/>
      <point x="257" y="76" type="line"/>
      <point x="126" y="76" type="line"/>
      <point x="223" y="213" type="line" smooth="yes"/>
      <point x="250" y="251"/>
      <point x="256" y="271"/>
      <point x="256" y="308" type="curve" smooth="yes"/>
      <point x="256" y="339" type="line" smooth="yes"/>
      <point x="256" y="398"/>
      <point x="215" y="433"/>
      <point x="146" y="433" type="curve" smooth="yes"/>
      <point x="78" y="433"/>
      <point x="35" y="397"/>
      <point x="35" y="341" type="curve" smooth="yes"/>
      <point x="35" y="301" type="line"/>
      <point x="117" y="301" type="line"/>
      <point x="117" y="333" type="line" smooth="yes"/>
      <point x="117" y="350.183"/>
      <point x="126.918" y="358"/>
      <point x="144" y="358" type="curve" smooth="yes"/>
      <point x="162.526" y="358"/>
      <point x="174" y="348.848"/>
      <point x="174" y="330" type="curve" smooth="yes"/>
      <point x="174" y="308" type="line" smooth="yes"/>
      <point x="174" y="285"/>
      <point x="171" y="275"/>
      <point x="153" y="249" type="curve" smooth="yes"/>
      <point x="32" y="70" type="line"/>
    </contour>
  </outline>
</glyph>
<glyph name="zacute.loclPLK" format="2">
  <advance width="393"/>
  <outline>
    <component base="z"/>
    <contour>
      <point x="153" y="604" type="line"/>
      <point x="254" y="604" type="line"/>
      <point x="300" y="743" type="line"/>
      <point x="174" y="743" type="line"/>
    </contour>
  </outline>
</glyph>
